<?xml version="1.0" standalone="no"?>
<!DOCTYPE svg PUBLIC "-//W3C//DTD SVG 20010904//EN"
 "http://www.w3.org/TR/2001/REC-SVG-20010904/DTD/svg10.dtd">
<svg version="1.0" xmlns="http://www.w3.org/2000/svg"
 width="600.000000pt" height="240.000000pt" viewBox="0 0 600.000000 240.000000"
 preserveAspectRatio="xMidYMid meet">

<g transform="translate(0.000000,240.000000) scale(0.100000,-0.100000)"
fill="#000000" stroke="none">
<path d="M1285 1660 c-3 -5 1 -10 10 -10 12 0 15 -7 10 -32 -7 -46 -35 -270
-35 -285 0 -7 6 -13 14 -13 9 0 17 23 24 72 11 74 23 94 57 100 18 3 20 -4 25
-82 4 -72 8 -85 23 -88 22 -4 57 25 57 47 -1 14 -2 14 -14 -1 -28 -38 -39 -22
-32 47 4 40 2 73 -4 85 -13 24 -47 26 -79 3 l-24 -16 6 44 c4 24 9 65 13 92 6
45 5 47 -19 47 -14 0 -29 -4 -32 -10z"/>
<path d="M949 1632 c-17 -44 -4 -59 19 -22 9 15 23 20 57 20 27 0 45 -5 45
-11 0 -7 -7 -71 -16 -143 -12 -92 -21 -135 -32 -143 -13 -11 -6 -13 44 -12 45
0 54 2 37 9 -28 11 -27 -5 -6 163 l16 137 47 0 c41 0 47 -3 57 -27 11 -28 11
-27 12 12 l1 40 -136 0 c-133 0 -137 -1 -145 -23z"/>
<path d="M1929 1638 c-5 -9 -9 -25 -9 -34 0 -16 3 -15 20 4 16 16 32 22 66 22
44 0 45 -1 40 -27 -3 -16 -10 -71 -16 -123 -15 -133 -19 -148 -38 -153 -9 -3
10 -5 43 -5 33 0 52 2 43 5 -21 5 -23 33 -8 154 20 161 15 149 66 149 37 0 47
-4 51 -20 8 -32 25 -23 21 11 l-3 32 -133 1 c-116 1 -135 -1 -143 -16z"/>
<path d="M4040 1651 c0 -2 7 -9 15 -15 13 -10 12 -28 -2 -149 -10 -86 -22
-144 -30 -153 -12 -12 -7 -14 39 -13 29 1 45 3 36 6 -22 6 -23 47 -3 193 8 58
15 108 15 113 0 15 47 6 68 -13 47 -44 16 -123 -53 -133 -23 -3 -21 -4 13 -6
59 -2 102 39 102 97 0 61 -25 77 -121 77 -43 0 -79 -2 -79 -4z"/>
<path d="M2405 1528 c-4 -9 -16 -13 -39 -10 -26 3 -41 -3 -68 -27 -44 -38 -60
-76 -56 -127 3 -37 5 -39 39 -42 25 -2 40 3 54 18 22 24 35 26 35 5 0 -9 7
-18 15 -22 19 -7 55 24 55 46 -1 13 -3 13 -15 -3 -25 -33 -29 -9 -16 81 11 79
9 116 -4 81z m-32 -69 c-3 -57 -19 -93 -49 -110 -21 -11 -27 -10 -41 3 -14 14
-14 23 -4 60 14 49 27 70 56 86 31 18 40 8 38 -39z"/>
<path d="M3051 1526 c-6 -8 -21 -12 -31 -9 -50 13 -116 -50 -134 -130 -14 -61
43 -89 97 -47 14 11 28 20 31 20 3 0 6 -9 6 -20 0 -11 7 -20 15 -20 18 0 55
35 55 52 0 6 -9 3 -20 -7 -20 -18 -20 -17 -20 17 0 19 5 60 11 92 11 62 9 75
-10 52z m-26 -26 c12 -20 -15 -117 -40 -140 -44 -42 -76 -6 -56 62 19 63 77
110 96 78z"/>
<path d="M3512 1528 c-7 -7 -27 -11 -45 -10 -42 4 -83 -28 -108 -82 -21 -47
-24 -87 -7 -104 18 -18 62 -14 91 8 25 20 25 20 30 0 3 -11 12 -20 19 -20 18
0 64 48 55 57 -4 3 -13 -2 -21 -12 -7 -10 -16 -14 -19 -8 -6 9 8 130 19 166 6
20 3 22 -14 5z m-34 -27 c11 -7 11 -19 -2 -67 -16 -61 -46 -97 -75 -92 -37 7
-19 113 26 147 29 23 32 24 51 12z"/>
<path d="M1570 1492 c-38 -38 -55 -103 -38 -140 18 -36 82 -43 119 -13 13 11
19 20 12 21 -6 0 -15 -4 -18 -10 -9 -14 -58 -13 -73 2 -7 7 -12 25 -12 40 0
24 4 28 29 28 34 0 81 34 81 59 0 47 -58 54 -100 13z m66 4 c8 -22 -14 -55
-42 -62 -34 -9 -38 -1 -20 34 21 40 52 54 62 28z"/>
<path d="M2532 1508 c-7 -7 -12 -21 -12 -32 0 -20 0 -20 16 0 14 17 15 12 9
-68 -6 -72 -4 -88 7 -88 10 0 18 22 26 72 12 83 39 121 67 98 14 -12 16 -25
10 -79 -4 -35 -9 -70 -12 -78 -3 -8 3 -13 16 -13 18 0 21 6 21 38 1 61 31 137
55 137 18 0 20 -7 20 -85 0 -78 2 -85 21 -88 22 -3 62 34 49 46 -4 4 -10 1
-12 -5 -3 -7 -10 -13 -16 -13 -8 0 -12 25 -12 76 0 63 -3 79 -18 88 -13 8 -24
7 -48 -7 -29 -16 -32 -16 -44 -1 -14 20 -54 13 -80 -12 -15 -15 -17 -15 -22 5
-6 23 -23 27 -41 9z"/>
<path d="M3166 1504 c-9 -8 -16 -25 -16 -37 0 -22 1 -22 19 2 31 40 35 5 16
-121 -4 -22 -1 -28 14 -28 15 0 19 11 25 69 8 88 13 101 39 98 13 -1 23 5 25
16 5 23 -25 23 -51 0 -18 -17 -19 -17 -28 0 -12 21 -23 22 -43 1z"/>
<path d="M3655 1487 c-41 -41 -55 -99 -34 -136 18 -32 78 -41 115 -16 35 22
30 40 -5 19 -62 -37 -109 24 -77 100 19 45 41 54 77 33 33 -19 53 -2 24 20
-31 22 -65 15 -100 -20z"/>
<path d="M4297 1502 c-18 -20 -23 -52 -8 -52 5 0 11 10 15 23 5 18 8 20 16 7
6 -9 7 -45 4 -87 -6 -61 -4 -73 8 -73 11 0 17 17 22 63 11 100 15 108 42 101
20 -5 24 -2 24 15 0 26 -26 28 -53 4 -18 -17 -19 -17 -28 0 -13 22 -22 22 -42
-1z"/>
<path d="M4514 1485 c-40 -43 -53 -97 -33 -134 20 -35 84 -41 120 -12 13 11
19 20 12 21 -6 0 -15 -4 -18 -10 -9 -15 -61 -12 -74 3 -6 8 -12 24 -13 37 -3
20 3 25 36 32 65 14 95 55 64 86 -22 22 -60 13 -94 -23z m71 15 c15 -25 -27
-70 -65 -70 -18 0 -10 31 15 55 26 27 40 31 50 15z"/>
<path d="M4716 1505 c-24 -24 -20 -50 14 -88 17 -19 30 -44 30 -56 0 -28 -29
-39 -45 -18 -16 22 -37 22 -33 0 3 -14 13 -18 48 -18 37 0 46 4 59 27 16 27
12 35 -54 124 -6 9 -5 18 3 26 11 11 16 10 26 -4 7 -10 19 -18 25 -18 7 0 11
8 9 18 -4 23 -60 28 -82 7z"/>
<path d="M4895 1496 c-19 -28 -11 -51 32 -98 18 -18 23 -32 18 -47 -7 -24 -40
-28 -49 -6 -8 21 -38 19 -34 -2 5 -26 74 -30 99 -7 27 25 23 58 -11 97 -29 34
-37 57 -23 70 3 4 15 -1 25 -10 13 -12 22 -13 29 -6 18 18 1 33 -36 33 -26 0
-39 -6 -50 -24z"/>
<path d="M2338 1143 c-14 -30 -53 -47 -42 -19 5 13 1 14 -26 6 -17 -5 -37 -7
-45 -4 -7 3 -16 1 -20 -5 -3 -6 -11 -11 -16 -11 -6 0 -7 5 -4 10 3 6 -1 10
-10 10 -9 0 -14 -4 -11 -9 3 -5 -1 -11 -9 -14 -9 -4 -12 -1 -9 7 7 19 -15 31
-29 17 -16 -16 -37 -14 -37 4 0 18 -41 19 -145 4 -38 -5 -121 -15 -184 -22
-72 -8 -116 -17 -119 -25 -2 -6 3 -12 11 -12 8 0 17 -7 21 -15 3 -8 13 -14 23
-14 17 1 17 2 1 6 -44 11 -10 19 80 19 87 -1 97 -3 94 -19 -2 -9 2 -25 7 -35
7 -11 10 -13 11 -3 0 8 8 4 20 -10 21 -26 26 -19 10 12 -15 28 18 26 61 -4 19
-13 40 -22 47 -19 7 2 12 -5 12 -17 0 -12 4 -21 9 -21 6 0 8 17 5 38 -2 20 -2
31 2 25 3 -7 10 -13 16 -13 5 0 24 -10 41 -22 21 -15 32 -18 35 -10 2 7 8 12
13 12 4 0 6 -8 3 -17 -5 -17 -5 -17 8 -2 12 15 17 15 41 3 15 -8 27 -12 27 -8
0 4 7 1 15 -6 12 -10 16 -9 21 4 3 9 11 16 18 15 29 -4 45 2 49 19 3 11 5 8 6
-9 1 -30 26 -46 35 -23 3 9 1 12 -4 9 -6 -3 -10 -2 -10 3 0 6 7 12 15 16 8 3
15 1 15 -5 0 -6 4 -8 9 -4 5 3 12 1 16 -5 3 -5 16 -15 27 -21 18 -10 20 -9 15
5 -5 13 0 15 26 10 18 -2 39 -5 47 -6 8 0 21 -5 27 -10 9 -7 16 -2 24 16 11
23 14 24 28 13 9 -8 24 -17 34 -20 10 -4 15 -11 12 -17 -4 -6 1 -7 10 -3 9 3
13 9 8 12 -5 3 -12 14 -16 23 -5 15 -2 16 20 7 23 -8 24 -8 13 6 -11 13 -9 13
26 0 35 -14 37 -14 20 0 -11 8 -24 15 -30 15 -27 0 10 14 48 17 43 5 44 4 40
-24 -2 -15 -1 -20 2 -10 3 9 9 17 12 17 13 -1 52 -38 52 -49 0 -12 13 -15 23
-4 4 3 0 15 -10 25 -11 12 -12 18 -3 18 6 0 10 6 7 14 -4 10 9 14 59 15 59 2
75 -5 57 -23 -4 -3 -8 -12 -9 -19 -1 -7 -5 -20 -9 -29 -4 -10 -3 -18 2 -18 6
0 15 15 21 33 10 32 10 32 11 5 1 -16 5 -28 11 -28 5 0 7 8 4 18 -3 9 4 -1 15
-22 27 -50 34 -58 26 -25 -8 31 7 45 25 24 10 -12 15 -13 24 -2 6 7 10 10 9 8
-2 -2 5 -10 15 -17 19 -14 42 -2 42 22 0 8 5 14 11 14 6 0 8 -9 4 -20 -4 -11
-2 -20 4 -20 6 0 11 12 12 28 0 24 2 22 14 -13 7 -22 13 -33 14 -23 1 19 21
18 47 -2 11 -8 8 -3 -5 12 -13 15 -28 25 -32 22 -5 -3 -9 2 -9 10 0 22 22 20
49 -5 12 -12 25 -18 28 -15 4 3 3 6 -2 6 -4 0 -2 7 5 15 10 12 10 15 -4 15 -9
0 -16 4 -16 8 0 5 -10 14 -22 20 -20 9 -16 11 29 11 61 1 83 -6 83 -26 0 -8 4
-12 9 -9 4 3 16 -1 26 -8 16 -11 21 -11 34 2 10 10 16 11 19 3 2 -6 12 -11 23
-11 10 0 19 -4 19 -8 0 -4 8 -9 18 -10 31 -3 57 -9 85 -21 38 -15 58 -14 51 3
-3 7 -17 14 -31 14 -14 0 -28 4 -32 10 -3 5 -13 12 -21 15 -8 2 -3 3 12 1 15
-2 30 1 33 6 3 6 14 10 23 10 12 0 13 -3 5 -8 -7 -5 5 -13 32 -23 25 -9 42
-13 40 -8 -10 16 12 16 100 2 94 -14 225 -33 262 -36 11 -1 19 -5 16 -9 -6
-12 11 -10 23 2 6 6 22 6 44 0 19 -6 55 -10 80 -9 l45 1 -40 8 c-22 5 -103 18
-180 30 -77 12 -160 25 -185 30 -25 4 -85 14 -135 21 -49 7 -97 18 -105 25 -8
6 -24 14 -35 17 -11 3 1 5 27 4 25 -1 44 2 41 7 -3 4 5 5 17 1 14 -4 25 -3 30
4 5 8 14 9 33 2 15 -6 27 -7 27 -3 0 9 7 9 260 13 123 2 175 5 155 11 -54 15
-632 -5 -667 -24 -12 -6 -18 -5 -18 2 0 7 -6 7 -21 0 -11 -7 -27 -9 -35 -6 -8
3 -25 0 -37 -7 -12 -7 -31 -12 -42 -11 -11 1 -55 2 -97 3 -45 1 -78 5 -78 11
0 6 11 10 25 10 40 0 29 19 -15 26 -38 6 -49 19 -32 40 4 5 -1 0 -12 -11 -10
-11 -31 -20 -47 -21 -27 -2 -28 0 -12 12 14 11 9 11 -26 -1 -50 -17 -66 -12
-51 16 7 12 7 19 1 19 -5 0 -13 -9 -16 -20 -9 -27 -24 -25 -18 3 4 20 3 21
-10 5 -8 -10 -17 -15 -20 -11 -4 3 -7 -1 -7 -10 0 -9 -5 -17 -12 -17 -6 0 -3
-10 8 -21 l19 -22 -70 8 c-38 4 -82 8 -97 7 -20 -1 -26 3 -25 18 1 14 5 16 18
9 10 -5 24 -9 31 -9 7 1 -2 7 -21 15 -26 12 -37 13 -48 3 -11 -9 -16 -9 -22 1
-6 9 -11 8 -21 -4 -7 -8 -22 -15 -34 -15 -20 0 -20 1 4 20 l25 20 -28 -2 c-16
-2 -33 -8 -39 -15 -19 -23 -27 -14 -16 18 6 16 8 33 4 36 -3 3 -11 -8 -17 -25
-10 -30 -29 -44 -29 -22 0 13 -36 13 -61 0 -13 -7 -19 -7 -19 0 0 5 -4 10 -10
10 -5 0 -9 -5 -7 -11 1 -6 -4 -14 -11 -16 -7 -3 -10 1 -6 10 4 11 0 14 -13 12
-10 -2 -25 -4 -33 -5 -12 0 -12 -3 3 -14 21 -16 21 -22 1 -30 -8 -3 -12 -2 -9
4 4 6 -11 10 -37 10 -24 0 -38 4 -33 8 18 13 17 35 0 28 -9 -3 -19 -6 -21 -6
-3 0 -3 -4 0 -8 2 -4 -4 -8 -15 -8 -23 0 -23 1 -1 34 30 43 34 52 23 52 -5 0
-16 -12 -23 -27z m-278 -7 c0 -2 3 -12 7 -21 5 -15 3 -16 -18 -5 -24 13 -24
13 -6 -8 24 -26 15 -30 -61 -24 l-63 4 22 21 c13 12 41 24 63 28 23 3 44 7 49
8 4 0 7 -1 7 -3z m80 -10 c0 -3 -4 -8 -10 -11 -5 -3 -10 -1 -10 4 0 6 5 11 10
11 6 0 10 -2 10 -4z m-300 -26 c0 -5 -7 -10 -15 -10 -8 0 -15 5 -15 10 0 6 7
10 15 10 8 0 15 -4 15 -10z m397 -2 c16 -27 11 -38 -20 -38 -29 0 -30 1 -11
15 19 14 19 14 -1 15 -17 0 -17 2 -5 10 20 13 27 12 37 -2z m-57 -16 c0 -15
-11 -21 -27 -15 -12 5 -12 7 -1 14 17 11 28 11 28 1z m438 -19 c2 -9 -8 -13
-32 -13 -38 0 -57 16 -29 23 29 8 56 3 61 -10z m132 -7 c-6 -9 -19 -12 -28 -8
-17 6 -14 7 37 21 2 1 -2 -5 -9 -13z m392 0 c14 -20 8 -26 -19 -20 -51 11 -58
14 -46 22 18 11 57 10 65 -2z m-1142 -6 c-14 -4 -19 -8 -11 -9 8 -1 12 -3 10
-6 -8 -7 -49 6 -49 16 0 5 17 9 38 8 33 -1 34 -2 12 -9z m140 1 c23 -1 23 -2
8 -17 -14 -15 -21 -15 -48 -4 -41 17 -47 30 -13 26 16 -2 39 -4 53 -5z m175
-11 l20 -9 -20 0 c-11 -1 -29 -4 -40 -7 -11 -3 -29 2 -40 10 -19 15 -18 15 20
15 22 0 49 -4 60 -9z m232 -20 c-25 -20 -28 -20 -57 -5 -16 8 -30 18 -30 20 0
3 25 5 56 5 l57 0 -26 -20z m613 0 l35 -1 -30 -13 c-16 -7 -36 -11 -44 -8 -10
4 -12 1 -6 -8 7 -11 -51 18 -75 37 -3 3 15 2 40 -1 25 -2 61 -5 80 -6z m-892
-19 c11 -6 11 -10 -1 -19 -11 -9 -19 -6 -38 14 l-24 26 25 -7 c14 -4 31 -11
38 -14z m212 -17 c0 -2 -9 0 -20 6 -11 6 -20 13 -20 16 0 2 9 0 20 -6 11 -6
20 -13 20 -16z m94 1 c-7 -17 -20 -20 -28 -6 -4 5 0 12 6 14 23 9 28 7 22 -8z
m598 3 c-13 -6 -21 -17 -18 -24 3 -8 1 -16 -4 -19 -5 -3 -10 3 -12 12 -4 20
19 43 42 42 9 0 6 -5 -8 -11z m548 -18 c18 -12 2 -12 -25 0 -13 6 -15 9 -5 9
8 0 22 -4 30 -9z"/>
<path d="M2425 1125 l-30 -14 30 6 c17 3 34 10 40 14 14 13 -5 10 -40 -6z"/>
<path d="M1836 1043 c-6 -14 -5 -15 5 -6 7 7 10 15 7 18 -3 3 -9 -2 -12 -12z"/>
<path d="M2892 1002 c-9 -7 -8 -13 8 -27 11 -10 20 -13 20 -7 0 6 -6 13 -12
15 -10 4 -9 8 2 16 17 12 1 15 -18 3z"/>
<path d="M2358 640 c2 -44 8 -80 13 -80 5 0 9 36 9 80 0 57 -4 80 -12 80 -10
0 -12 -21 -10 -80z"/>
<path d="M2584 660 c-5 -5 -7 -31 -4 -57 4 -38 9 -48 25 -50 11 -2 14 0 8 3
-7 3 -13 23 -13 45 0 30 4 39 18 40 13 0 14 2 2 6 -8 3 -18 10 -21 14 -3 5
-10 4 -15 -1z"/>
<path d="M2289 655 c-3 -2 -3 -26 1 -52 4 -38 9 -48 25 -51 18 -2 18 -2 3 8
-12 7 -18 23 -18 45 0 29 4 35 23 36 21 0 21 1 2 9 -24 10 -30 11 -36 5z"/>
<path d="M1789 605 c17 -49 30 -57 38 -25 7 26 19 25 26 -2 4 -12 9 -20 12
-16 9 9 -19 88 -31 88 -7 0 -10 -8 -7 -19 3 -11 0 -27 -5 -37 -9 -16 -11 -13
-17 19 -4 20 -13 37 -20 37 -10 0 -9 -11 4 -45z"/>
<path d="M1890 635 c0 -8 2 -15 4 -15 2 0 6 7 10 15 3 8 1 15 -4 15 -6 0 -10
-7 -10 -15z"/>
<path d="M1937 605 c17 -51 25 -55 41 -22 l11 22 7 -22 c3 -13 11 -23 16 -23
6 0 7 8 3 18 -3 9 -9 29 -12 45 -3 15 -12 27 -20 27 -8 0 -11 -5 -8 -11 4 -5
4 -22 0 -37 l-8 -27 -12 30 c-7 17 -11 33 -8 38 2 4 -3 7 -11 7 -13 0 -13 -5
1 -45z"/>
<path d="M2035 640 c3 -5 12 -7 21 -3 10 4 19 -7 31 -36 18 -47 26 -50 40 -18
l10 22 7 -22 c4 -13 12 -23 18 -23 6 0 7 7 3 18 -4 9 -10 29 -13 45 -2 15 -11
27 -19 27 -9 0 -13 -6 -9 -15 3 -8 1 -25 -3 -37 -9 -23 -9 -23 -20 5 -6 16 -9
33 -5 38 3 5 -11 9 -31 9 -20 0 -34 -4 -30 -10z"/>
<path d="M2185 640 c3 -5 8 -10 11 -10 2 0 4 5 4 10 0 6 -5 10 -11 10 -5 0 -7
-4 -4 -10z"/>
<path d="M2414 634 c9 -8 16 -29 16 -45 0 -16 4 -29 8 -29 12 0 1 74 -12 82
-20 14 -28 8 -12 -8z"/>
<path d="M2526 636 c4 -12 0 -16 -16 -16 -14 0 -19 4 -14 13 5 8 2 8 -9 -2
-31 -25 -10 -81 31 -81 13 0 12 3 -6 16 -32 22 -28 44 8 44 33 0 38 11 15 30
-13 11 -14 10 -9 -4z"/>
<path d="M2650 640 c-8 -5 -11 -12 -7 -17 5 -4 12 -1 17 7 13 21 28 2 32 -39
2 -19 8 -36 14 -38 6 -2 8 11 6 34 -7 57 -27 75 -62 53z"/>
<path d="M2755 605 c0 -25 5 -45 10 -45 6 0 9 19 7 45 -5 58 -18 58 -17 0z"/>
<path d="M2804 634 c11 -11 16 -27 14 -46 -3 -17 0 -28 7 -28 8 0 9 14 6 42
-5 32 -11 44 -25 46 -19 4 -19 3 -2 -14z"/>
<path d="M2870 630 c7 -12 10 -33 7 -46 -2 -14 1 -24 8 -24 16 0 4 82 -13 88
-11 3 -12 0 -2 -18z"/>
<path d="M2930 635 c-8 -10 -9 -15 -1 -15 6 0 11 5 11 10 0 14 27 12 32 -2 2
-7 4 -24 4 -38 -1 -24 10 -40 28 -40 5 0 4 6 -2 13 -6 6 -12 28 -14 47 -2 27
-8 36 -24 38 -11 2 -27 -4 -34 -13z"/>
<path d="M3038 644 c-2 -2 -2 -21 0 -43 5 -50 22 -54 22 -6 0 24 5 35 15 35 8
0 15 4 15 9 0 8 -45 13 -52 5z"/>
<path d="M3110 635 c-8 -10 -9 -15 -1 -15 6 0 11 5 11 10 0 14 27 12 32 -2 2
-7 4 -24 4 -38 -1 -24 10 -40 28 -40 5 0 4 6 -2 13 -6 6 -12 28 -14 47 -2 27
-8 36 -24 38 -11 2 -27 -4 -34 -13z"/>
<path d="M3256 636 c21 -15 30 -14 19 3 -3 6 -14 11 -23 11 -13 0 -13 -2 4
-14z"/>
<path d="M3309 648 c0 -2 -1 -33 -2 -71 -1 -50 1 -67 11 -67 9 0 11 7 7 20 -5
16 -2 20 19 20 46 0 69 67 32 92 -22 15 -29 8 -11 -12 23 -25 13 -70 -15 -70
-21 0 -37 38 -27 65 4 8 2 17 -3 20 -6 4 -10 5 -11 3z"/>
<path d="M3428 644 c-2 -2 -2 -21 0 -43 5 -50 22 -54 22 -6 0 29 4 35 21 35
11 0 18 4 15 9 -5 8 -51 12 -58 5z"/>
<path d="M3550 635 c11 -13 9 -15 -14 -15 -18 0 -25 4 -20 12 4 7 3 8 -4 4
-28 -17 -7 -86 25 -86 8 0 6 7 -7 20 -29 29 -25 40 15 40 26 0 33 4 29 14 -3
8 -13 17 -21 20 -13 5 -14 4 -3 -9z"/>
<path d="M3632 636 c7 -8 15 -12 17 -11 5 6 -10 25 -20 25 -5 0 -4 -6 3 -14z"/>
<path d="M3706 643 c5 -5 12 -12 16 -18 4 -6 8 -2 8 8 0 9 -7 17 -17 17 -9 0
-12 -3 -7 -7z"/>
<path d="M3826 634 c-39 -39 4 -103 50 -75 18 11 17 12 -2 6 -13 -3 -28 1 -38
10 -20 20 -20 26 -2 50 12 16 16 17 30 6 14 -11 16 -11 16 3 0 21 -34 21 -54
0z"/>
<path d="M3970 635 c7 -8 10 -28 8 -45 -5 -34 7 -41 17 -10 8 26 -2 57 -22 64
-13 5 -14 4 -3 -9z"/>
<path d="M4030 605 c0 -25 5 -45 10 -45 6 0 10 20 10 45 0 25 -4 45 -10 45 -5
0 -10 -20 -10 -45z"/>
<path d="M4078 638 c7 -7 12 -27 12 -45 0 -18 5 -33 10 -33 17 0 12 77 -6 84
-24 9 -29 7 -16 -6z"/>
<path d="M4138 643 c7 -2 12 -22 12 -44 0 -21 5 -39 10 -39 6 0 10 15 10 33 0
33 -15 58 -34 56 -6 0 -5 -3 2 -6z"/>
<path d="M3210 619 c-21 -38 42 -96 65 -59 3 6 -1 7 -10 4 -25 -10 -47 16 -41
48 7 33 1 36 -14 7z"/>
<path d="M3912 628 c-24 -24 -2 -78 31 -78 6 0 3 6 -7 13 -14 10 -17 23 -14
45 2 18 4 32 3 32 0 0 -6 -5 -13 -12z"/>
<path d="M3600 621 c0 -5 14 -19 30 -31 17 -12 30 -17 30 -11 0 5 -13 19 -30
31 -16 12 -30 17 -30 11z"/>
<path d="M3680 621 c0 -5 14 -19 30 -31 17 -12 30 -17 30 -11 0 5 -13 19 -30
31 -16 12 -30 17 -30 11z"/>
<path d="M2644 585 c-8 -19 3 -35 24 -35 14 0 14 2 3 9 -8 5 -11 16 -8 25 4 9
2 16 -4 16 -5 0 -12 -7 -15 -15z"/>
<path d="M2933 589 c-15 -15 -5 -39 14 -39 12 0 13 3 3 15 -6 8 -9 19 -5 25 8
13 2 13 -12 -1z"/>
<path d="M3112 588 c-12 -12 1 -38 20 -38 6 0 5 6 -2 15 -6 8 -9 19 -5 25 8
13 2 13 -13 -2z"/>
<path d="M2235 570 c-3 -5 -1 -10 4 -10 6 0 11 5 11 10 0 6 -2 10 -4 10 -3 0
-8 -4 -11 -10z"/>
<path d="M3590 570 c0 -5 5 -10 11 -10 5 0 7 5 4 10 -3 6 -8 10 -11 10 -2 0
-4 -4 -4 -10z"/>
<path d="M3670 570 c0 -5 5 -10 11 -10 5 0 7 5 4 10 -3 6 -8 10 -11 10 -2 0
-4 -4 -4 -10z"/>
<path d="M3765 570 c-3 -5 1 -10 10 -10 9 0 13 5 10 10 -3 6 -8 10 -10 10 -2
0 -7 -4 -10 -10z"/>
</g>
</svg>
